<?xml version="1.0" encoding="UTF-8"?>
<!DOCTYPE svg PUBLIC "-//W3C//DTD SVG 1.1//EN" "http://www.w3.org/Graphics/SVG/1.1/DTD/svg11.dtd">
<svg xmlns="http://www.w3.org/2000/svg" version="1.1" width="24px" height="37px" style="shape-rendering:geometricPrecision; text-rendering:geometricPrecision; image-rendering:optimizeQuality; fill-rule:evenodd; clip-rule:evenodd" xmlns:xlink="http://www.w3.org/1999/xlink">
<g><path style="opacity:1" fill="#304d37" d="M 20.5,17.5 C 19.5,18.5 18.5,19.5 17.5,20.5C 16.8333,20.5 16.5,20.8333 16.5,21.5C 16.1667,21.5 15.8333,21.5 15.5,21.5C 13.8333,20.1667 12.1667,20.1667 10.5,21.5C 10.1667,20.5 9.5,19.8333 8.5,19.5C 7.71304,17.8958 6.3797,17.2291 4.5,17.5C 7.95289,16.4159 10.9529,14.4159 13.5,11.5C 15.878,13.552 18.2113,15.552 20.5,17.5 Z"/></g>
<g><path style="opacity:1" fill="#d8d5d1" d="M 4.5,17.5 C 6.3797,17.2291 7.71304,17.8958 8.5,19.5C 6.57675,19.795 4.91008,20.6283 3.5,22C 4.97326,22.7096 5.63993,23.8762 5.5,25.5C 5.5,25.8333 5.5,26.1667 5.5,26.5C 3.5887,25.925 1.92203,24.925 0.5,23.5C 0.166667,23.5 -0.166667,23.5 -0.5,23.5C -0.5,22.5 -0.5,21.5 -0.5,20.5C 0.922032,19.075 2.5887,18.075 4.5,17.5 Z"/></g>
<g><path style="opacity:1" fill="#836f4b" d="M 8.5,19.5 C 9.5,19.8333 10.1667,20.5 10.5,21.5C 10.8333,22.1667 11.1667,22.8333 11.5,23.5C 9.14166,23.2525 7.14166,23.9192 5.5,25.5C 5.63993,23.8762 4.97326,22.7096 3.5,22C 4.91008,20.6283 6.57675,19.795 8.5,19.5 Z"/></g>
<g><path style="opacity:1" fill="#f9bf0b" d="M 17.5,20.5 C 18.8333,20.5 19.5,21.1667 19.5,22.5C 18.209,22.7373 17.209,22.404 16.5,21.5C 16.5,20.8333 16.8333,20.5 17.5,20.5 Z"/></g>
<g><path style="opacity:1" fill="#81ae4f" d="M 15.5,21.5 C 15.6716,22.4916 15.3382,23.1583 14.5,23.5C 13.5,23.5 12.5,23.5 11.5,23.5C 11.1667,22.8333 10.8333,22.1667 10.5,21.5C 12.1667,20.1667 13.8333,20.1667 15.5,21.5 Z"/></g>
<g><path style="opacity:1" fill="#cdc7bf" d="M 20.5,17.5 C 21.609,17.5569 22.609,17.8902 23.5,18.5C 23.5,20.5 23.5,22.5 23.5,24.5C 23.1667,24.5 22.8333,24.5 22.5,24.5C 22.1788,22.9519 21.1788,22.2852 19.5,22.5C 19.5,21.1667 18.8333,20.5 17.5,20.5C 18.5,19.5 19.5,18.5 20.5,17.5 Z"/></g>
<g><path style="opacity:1" fill="#e1b490" d="M 11.5,23.5 C 12.5,23.5 13.5,23.5 14.5,23.5C 14.5,24.8333 14.5,26.1667 14.5,27.5C 11.8333,27.5 9.16667,27.5 6.5,27.5C 6.5,26.8333 6.16667,26.5 5.5,26.5C 5.5,26.1667 5.5,25.8333 5.5,25.5C 7.14166,23.9192 9.14166,23.2525 11.5,23.5 Z"/></g>
<g><path style="opacity:1" fill="#998468" d="M 15.5,21.5 C 15.8333,21.5 16.1667,21.5 16.5,21.5C 17.209,22.404 18.209,22.7373 19.5,22.5C 21.1788,22.2852 22.1788,22.9519 22.5,24.5C 21.6935,25.7281 20.6935,26.7281 19.5,27.5C 17.8333,27.5 16.1667,27.5 14.5,27.5C 14.5,26.1667 14.5,24.8333 14.5,23.5C 15.3382,23.1583 15.6716,22.4916 15.5,21.5 Z"/></g>
<g><path style="opacity:1" fill="#83201d" d="M 0.5,23.5 C 1.92203,24.925 3.5887,25.925 5.5,26.5C 6.16667,26.5 6.5,26.8333 6.5,27.5C 5.50838,27.3284 4.84171,27.6618 4.5,28.5C 2.41311,27.4154 1.07978,25.7488 0.5,23.5 Z"/></g>
<g><path style="opacity:1" fill="#cd1117" d="M 4.5,28.5 C 4.84171,27.6618 5.50838,27.3284 6.5,27.5C 9.16667,27.5 11.8333,27.5 14.5,27.5C 16.1667,27.5 17.8333,27.5 19.5,27.5C 19.5,28.1667 19.5,28.8333 19.5,29.5C 18.609,30.1098 17.609,30.4431 16.5,30.5C 13.8333,30.5 11.1667,30.5 8.5,30.5C 8.16667,30.5 7.83333,30.5 7.5,30.5C 7.02694,29.0937 6.02694,28.427 4.5,28.5 Z"/></g>
<g><path style="opacity:0.937" fill="#781b18" d="M 22.5,24.5 C 22.8333,24.5 23.1667,24.5 23.5,24.5C 23.5,25.1667 23.5,25.8333 23.5,26.5C 22.1667,27.5 20.8333,28.5 19.5,29.5C 19.5,28.8333 19.5,28.1667 19.5,27.5C 20.6935,26.7281 21.6935,25.7281 22.5,24.5 Z"/></g>
<g><path style="opacity:0.502" fill="#501714" d="M 4.5,28.5 C 6.02694,28.427 7.02694,29.0937 7.5,30.5C 5.97306,30.573 4.97306,29.9063 4.5,28.5 Z"/></g>
<g><path style="opacity:1" fill="#891614" d="M 8.5,30.5 C 11.1667,30.5 13.8333,30.5 16.5,30.5C 15.0272,33.2474 12.6939,34.0807 9.5,33C 8.74756,32.3292 8.41423,31.4959 8.5,30.5 Z"/></g>
</svg>
