<?xml version="1.0" encoding="UTF-8"?>
<!DOCTYPE svg PUBLIC "-//W3C//DTD SVG 1.1//EN" "http://www.w3.org/Graphics/SVG/1.1/DTD/svg11.dtd">
<svg xmlns="http://www.w3.org/2000/svg" version="1.1" width="24px" height="37px" style="shape-rendering:geometricPrecision; text-rendering:geometricPrecision; image-rendering:optimizeQuality; fill-rule:evenodd; clip-rule:evenodd" xmlns:xlink="http://www.w3.org/1999/xlink">
<g><path style="opacity:1" fill="#d3d0cf" d="M 18.5,16.5 C 19.287,18.1042 20.6203,18.7709 22.5,18.5C 22.8333,18.5 23.1667,18.5 23.5,18.5C 23.5,20.5 23.5,22.5 23.5,24.5C 23.1667,24.5 22.8333,24.5 22.5,24.5C 22.4257,22.5891 21.4257,21.4224 19.5,21C 14.4729,19.0614 9.47292,19.0614 4.5,21C 3.17723,21.8159 2.51056,22.9826 2.5,24.5C 1.83333,24.1667 1.16667,23.8333 0.5,23.5C 0.166667,23.5 -0.166667,23.5 -0.5,23.5C -0.5,22.5 -0.5,21.5 -0.5,20.5C 5.06805,15.8602 11.4014,14.5269 18.5,16.5 Z"/></g>
<g><path style="opacity:0.686" fill="#6d6563" d="M 18.5,16.5 C 20.153,16.6596 21.4863,17.3263 22.5,18.5C 20.6203,18.7709 19.287,18.1042 18.5,16.5 Z"/></g>
<g><path style="opacity:1" fill="#b79446" d="M 22.5,24.5 C 21.4097,25.8571 20.0764,26.8571 18.5,27.5C 14.5,27.5 10.5,27.5 6.5,27.5C 4.92359,26.8571 3.59026,25.8571 2.5,24.5C 2.51056,22.9826 3.17723,21.8159 4.5,21C 9.47292,19.0614 14.4729,19.0614 19.5,21C 21.4257,21.4224 22.4257,22.5891 22.5,24.5 Z"/></g>
<g><path style="opacity:1" fill="#79231c" d="M 0.5,23.5 C 1.16667,23.8333 1.83333,24.1667 2.5,24.5C 3.59026,25.8571 4.92359,26.8571 6.5,27.5C 5.50838,27.3284 4.84171,27.6618 4.5,28.5C 2.41311,27.4154 1.07978,25.7488 0.5,23.5 Z"/></g>
<g><path style="opacity:1" fill="#7a2019" d="M 22.5,24.5 C 22.8333,24.5 23.1667,24.5 23.5,24.5C 23.5,25.1667 23.5,25.8333 23.5,26.5C 22.1667,27.5 20.8333,28.5 19.5,29.5C 19.6716,28.5084 19.3382,27.8417 18.5,27.5C 20.0764,26.8571 21.4097,25.8571 22.5,24.5 Z"/></g>
<g><path style="opacity:1" fill="#cc1115" d="M 4.5,28.5 C 4.84171,27.6618 5.50838,27.3284 6.5,27.5C 10.5,27.5 14.5,27.5 18.5,27.5C 19.3382,27.8417 19.6716,28.5084 19.5,29.5C 18.609,30.1098 17.609,30.4431 16.5,30.5C 13.8333,30.5 11.1667,30.5 8.5,30.5C 8.16667,30.5 7.83333,30.5 7.5,30.5C 7.02694,29.0937 6.02694,28.427 4.5,28.5 Z"/></g>
<g><path style="opacity:0.502" fill="#501714" d="M 4.5,28.5 C 6.02694,28.427 7.02694,29.0937 7.5,30.5C 5.97306,30.573 4.97306,29.9063 4.5,28.5 Z"/></g>
<g><path style="opacity:1" fill="#891614" d="M 8.5,30.5 C 11.1667,30.5 13.8333,30.5 16.5,30.5C 15.0272,33.2474 12.6939,34.0807 9.5,33C 8.74756,32.3292 8.41423,31.4959 8.5,30.5 Z"/></g>
</svg>
